<svg width="28" height="24" viewBox="0 0 28 24" fill="none" xmlns="http://www.w3.org/2000/svg">
<path d="M11.0008 12.9999C11.0008 14.1045 10.1054 14.9999 9.00085 14.9999C7.89628 14.9999 7.00085 14.1045 7.00085 12.9999C7.00085 11.8954 7.89628 10.9999 9.00085 10.9999C10.1054 10.9999 11.0008 11.8954 11.0008 12.9999Z" fill="#686868"/>
<path d="M20.0008 12.9999C20.0008 14.1045 19.1054 14.9999 18.0008 14.9999C16.8963 14.9999 16.0008 14.1045 16.0008 12.9999C16.0008 11.8954 16.8963 10.9999 18.0008 10.9999C19.1054 10.9999 20.0008 11.8954 20.0008 12.9999Z" fill="#686868"/>
<path fill-rule="evenodd" clip-rule="evenodd" d="M7.88943 4.94866C7.88943 2.19529 10.1642 -6.10352e-05 12.9244 -6.10352e-05H14.0773C16.8375 -6.10352e-05 19.1123 2.19529 19.1123 4.94866V6.76917H24.8615C26.1344 6.76917 27.1933 7.88493 26.9724 9.21146C26.6139 11.3629 26.0074 14.4913 25.1925 17.2644C24.7832 18.6542 24.301 20.0102 23.7762 21.0945C23.2588 22.1602 22.6098 23.1634 21.773 23.7057C21.4601 23.8881 21.0054 23.9947 20.7241 23.9999H6.27755C5.99628 23.9947 5.54158 23.8881 5.22868 23.7057C4.39188 23.1634 3.7429 22.1602 3.22549 21.0945C2.70074 20.0102 2.21854 18.6542 1.8092 17.2644C0.994349 14.4913 0.387834 11.3629 0.0293414 9.21146C-0.19164 7.88494 0.867256 6.76917 2.14018 6.76917H7.88943V4.94866ZM7.88943 8.76917V11.7179H9.88943V8.76917H17.1123V11.7179H19.1123V8.76917H24.8615C24.9172 8.76917 24.9559 8.79166 24.9786 8.81737C24.9997 8.84125 25.0032 8.86115 24.9995 8.88282C24.6455 11.0086 24.064 14.0184 23.2738 16.6999C22.8807 18.0374 22.4561 19.2379 21.977 20.221C21.509 21.185 21.073 21.7542 20.7257 21.9999L20.7241 21.9999H6.27755L6.27603 21.9999C5.92871 21.7542 5.4927 21.185 5.02465 20.221C4.54563 19.2379 4.12104 18.0374 3.72786 16.6999C2.93765 14.0184 2.35619 11.0086 2.00215 8.88282C1.99855 8.86115 2.00201 8.84125 2.02312 8.81736C2.04583 8.79166 2.08452 8.76917 2.14018 8.76917H7.88943ZM17.1123 6.76917H9.88943V4.94866C9.88943 3.34039 11.2278 1.99994 12.9244 1.99994H14.0773C15.7739 1.99994 17.1123 3.34039 17.1123 4.94866V6.76917Z" fill="#686868"/>
</svg>
