<svg width="24" height="25" viewBox="0 0 24 25" fill="none" xmlns="http://www.w3.org/2000/svg">
<path d="M17.0173 25H6.98155C3.14164 25 0 21.8146 0 17.9213V7.07873C0 3.18537 3.14164 0 6.98155 0H17.0173C20.8572 0 24 3.18537 24 7.07873V17.9213C24 21.8146 20.8572 25 17.0173 25ZM17.0173 23.1295C18.3814 23.1295 19.6692 22.5851 20.6432 21.5976C21.6171 20.61 22.154 19.3043 22.154 17.9213V7.07873C22.154 5.69571 21.6183 4.38884 20.6432 3.40129C19.6692 2.41375 18.3802 1.8694 17.0173 1.8694H6.98155C5.6164 1.8694 4.32859 2.41375 3.3546 3.40129C2.38061 4.38884 1.84374 5.69458 1.84374 7.07873V17.9213C1.84374 19.3054 2.38061 20.61 3.3546 21.5976C4.32859 22.5851 5.6164 23.1295 6.98155 23.1295H17.0173Z" fill="#DE8F75"/>
<path d="M18.6447 12.4031C18.6447 16.1044 15.6858 19.1034 12.0364 19.1034C8.38701 19.1034 5.42694 16.1033 5.42694 12.4031C5.42694 8.70293 8.38589 5.70166 12.0364 5.70166C15.6869 5.7028 18.6447 8.70293 18.6447 12.4031ZM12.0039 8.02108C9.6143 8.02108 7.67641 9.98481 7.67641 12.4088C7.67641 14.8316 9.61318 16.7965 12.0039 16.7965C14.3946 16.7965 16.3313 14.8316 16.3313 12.4088C16.3325 9.98481 14.3946 8.02108 12.0039 8.02108Z" fill="#DE8F75"/>
<path d="M20.3159 5.59791C20.3159 6.47409 19.6154 7.18435 18.7512 7.18435C17.8871 7.18435 17.1866 6.47409 17.1866 5.59791C17.1866 4.72173 17.8871 4.01147 18.7512 4.01147C19.6154 4.01147 20.3159 4.72173 20.3159 5.59791Z" fill="#DE8F75"/>
</svg>
