<svg width="25" height="25" viewBox="0 0 25 25" fill="none" xmlns="http://www.w3.org/2000/svg">
<path d="M12.4994 25C19.4038 25 25 19.4047 25 12.4998C25 5.59574 19.4038 0 12.4994 0C5.59617 0 0 5.59574 0 12.4998C0 17.7958 3.29206 22.3213 7.94093 24.1428C7.93588 24.1221 7.93116 24.1018 7.92669 24.0823C7.861 23.8041 7.84864 23.5179 7.83632 23.2329L7.83207 23.1361C7.77777 21.9948 7.87401 20.8558 8.16058 19.7469C8.39981 18.8186 8.61676 17.8843 8.83375 16.9498C8.9981 16.2421 9.16246 15.5344 9.33655 14.829C9.41072 14.5278 9.37827 14.2784 9.28924 13.9881C8.86919 12.6396 8.9781 11.3297 9.83342 10.1841C10.2433 9.63512 10.9054 9.41509 11.6112 9.51241C12.2746 9.60209 12.6717 10.0149 12.8422 10.6539C12.9876 11.1952 12.9056 11.7294 12.7831 12.2605C12.6778 12.7129 12.5408 13.1567 12.4037 13.6008C12.2392 14.1338 12.0746 14.6671 11.9647 15.2155C11.8852 15.6147 11.8977 16.1269 12.0042 16.5203C12.4354 18.1211 14.5755 17.7874 15.5943 17.0184C16.2868 16.4944 16.7814 15.7273 17.1093 14.9339C17.495 14.0059 17.6518 13.1171 17.6376 12.1243C17.6285 11.435 17.5417 10.5561 17.2733 9.90784C16.6172 8.32623 15.1199 7.22561 13.4415 6.98662C11.5579 6.71967 9.87595 7.12463 8.39317 8.50765C6.75794 10.0363 6.30195 13.0885 7.62938 14.9736C7.79693 15.2126 7.7891 15.3742 7.73287 15.6436C7.71181 15.7417 7.69418 15.8407 7.67653 15.9397C7.64101 16.1391 7.60546 16.3386 7.54196 16.5312L7.52603 16.5797C7.4446 16.8282 7.35691 17.0959 7.061 17.1165C6.83369 17.1318 6.61967 17.0147 6.44613 16.8806C6.0724 16.5934 5.76663 16.1713 5.56519 15.7463C5.51908 15.649 5.4645 15.5566 5.40985 15.464C5.36387 15.3862 5.31785 15.3083 5.27678 15.2273C4.70614 14.1087 4.4287 12.8646 4.54956 11.6084C4.59911 11.0899 4.68466 10.5659 4.82575 10.0634C5.35758 8.18039 6.66102 6.63002 8.35432 5.66742C8.82851 5.39886 9.3485 5.17097 9.8675 5.00343C11.6757 4.42097 13.6849 4.49516 15.4734 5.12016C16.7924 5.58022 18.0268 6.30875 18.9014 7.41882C20.3405 9.24583 20.7405 11.3705 20.2998 13.6491C19.9606 15.4017 19.2302 16.944 17.8876 18.1688C17.4173 18.5985 16.8701 18.9285 16.2874 19.1801C15.9882 19.309 15.6798 19.4206 15.3681 19.515C13.8619 19.9756 12.1428 19.5303 11.1088 18.3448C11.0378 18.6533 10.8594 19.306 10.7478 19.7142C10.707 19.8635 10.6751 19.9802 10.6606 20.0353C10.5082 20.6215 10.3516 21.2064 10.1506 21.7773C9.84188 22.6566 9.43221 23.5178 8.90929 24.2904L8.90403 24.2982C8.8745 24.3417 8.83994 24.3925 8.801 24.4439C9.96977 24.8054 11.2118 25 12.4994 25Z" fill="#DE8F75"/>
</svg>
