<svg width="21" height="21" viewBox="0 0 21 21" fill="none" xmlns="http://www.w3.org/2000/svg">
<path fill-rule="evenodd" clip-rule="evenodd" d="M8.51703 6.10352e-05C3.81321 6.10352e-05 0 3.81316 0 8.51701C0 13.2209 3.81321 17.0342 8.51703 17.0342C10.4706 17.0342 12.2704 16.3766 13.7074 15.2706L19.1132 20.6763C19.5448 21.108 20.2447 21.108 20.6763 20.6763C21.1079 20.2448 21.1079 19.5448 20.6763 19.1133L15.2704 13.7074C16.3764 12.2705 17.0341 10.4706 17.0341 8.51701C17.0341 3.81316 13.2209 6.10352e-05 8.51703 6.10352e-05ZM2.21053 8.51701C2.21053 5.03419 5.03404 2.21059 8.51703 2.21059C12 2.21059 14.8235 5.03419 14.8235 8.51701C14.8235 12.0001 12 14.8237 8.51703 14.8237C5.03404 14.8237 2.21053 12.0001 2.21053 8.51701Z" fill="#686868"/>
</svg>
