<svg width="94" height="21" viewBox="0 0 94 21" fill="none" xmlns="http://www.w3.org/2000/svg">
<path d="M82.9062 7.26936H82.83C82.6316 7.27158 82.4421 7.35154 82.3026 7.49189C82.163 7.63224 82.0848 7.82166 82.0848 8.01903V15.4314C82.0848 15.6303 82.1642 15.8209 82.3056 15.9615C82.4469 16.1021 82.6386 16.1811 82.8385 16.1811C83.0384 16.1811 83.2301 16.1021 83.3714 15.9615C83.5128 15.8209 83.5922 15.6303 83.5922 15.4314V8.01061C83.5908 7.82438 83.5199 7.64532 83.3931 7.50829C83.2663 7.37127 83.0927 7.2861 82.9062 7.26936V7.26936ZM74.6664 8.01061C74.6647 7.85598 74.6143 7.70577 74.5225 7.58102V7.58102C74.4819 7.51834 74.4267 7.46633 74.3616 7.4294H74.3023C74.1883 7.36192 74.0583 7.32592 73.9256 7.32512C73.793 7.32432 73.6625 7.35875 73.5477 7.42486C73.4329 7.49096 73.338 7.58635 73.2726 7.70117C73.2073 7.81598 73.1739 7.94607 73.176 8.07799V8.79396C72.88 8.30049 72.4554 7.89587 71.9469 7.623C71.4385 7.35014 70.8654 7.21921 70.2882 7.24409C69.6993 7.23157 69.1145 7.34547 68.5738 7.57805C68.0331 7.81062 67.5491 8.15639 67.1549 8.59181C66.3091 9.50854 65.8564 10.7174 65.8931 11.9611C65.8684 13.0628 66.2788 14.1303 67.0364 14.9345C67.4115 15.3383 67.8695 15.6572 68.3795 15.8694C68.8895 16.0816 69.4394 16.1821 69.9918 16.1643C70.6195 16.2059 71.2462 16.0698 71.7993 15.7716C72.3524 15.4734 72.8092 15.0255 73.1167 14.4796V14.6649V15.3978C73.1188 15.5945 73.1978 15.7826 73.3369 15.9225C73.4759 16.0624 73.6642 16.1431 73.8619 16.1474H73.9127C74.1067 16.1387 74.2898 16.0559 74.4239 15.9163C74.558 15.7766 74.6328 15.5909 74.6326 15.3978V8.35596C74.6326 8.35596 74.6326 8.35596 74.6326 8.29699L74.6664 8.01061ZM72.3207 13.9068C72.0491 14.1852 71.7219 14.404 71.3602 14.5491C70.9985 14.6941 70.6103 14.7623 70.2205 14.7492C69.8625 14.7496 69.5084 14.6748 69.1815 14.5297C68.8546 14.3845 68.5622 14.1723 68.3236 13.9068C68.0631 13.6311 67.8601 13.3068 67.7264 12.9525C67.5927 12.5983 67.5308 12.2213 67.5445 11.8432C67.5124 10.9868 67.7954 10.1483 68.3405 9.48467C68.5805 9.19037 68.884 8.95354 69.2285 8.7917C69.5729 8.62985 69.9496 8.54714 70.3306 8.54969C70.6999 8.54848 71.0655 8.6226 71.4049 8.76748C71.7443 8.91236 72.0502 9.12491 72.3037 9.39201C72.593 9.69389 72.8172 10.0513 72.9628 10.4423C73.1084 10.8334 73.1723 11.2498 73.1506 11.6663C73.1756 12.0816 73.1148 12.4977 72.9721 12.8888C72.8294 13.2799 72.6077 13.6378 72.3207 13.9405V13.9068ZM89.554 7.22725C88.6623 7.21562 87.7872 7.46745 87.0396 7.95085C86.2919 8.43426 85.7053 9.12748 85.354 9.94274C85.0027 10.758 84.9026 11.6586 85.0662 12.5305C85.2299 13.4024 85.6501 14.2064 86.2734 14.8406C86.8968 15.4749 87.6954 15.9108 88.5681 16.0933C89.4408 16.2758 90.3483 16.1965 91.1756 15.8656C92.003 15.5347 92.713 14.9671 93.2158 14.2345C93.7186 13.5019 93.9915 12.6374 93.9999 11.7505C94.0033 11.1653 93.8907 10.5853 93.6687 10.0434C93.4466 9.5015 93.1194 9.00842 92.7058 8.59231C92.2922 8.17619 91.8002 7.84519 91.2579 7.6182C90.7157 7.39121 90.1338 7.27267 89.5455 7.26936L89.554 7.22725ZM90.8751 14.3533C90.4669 14.564 90.0138 14.6738 89.554 14.6734C88.9372 14.6692 88.3375 14.4715 87.8403 14.1085C87.3431 13.7455 86.9737 13.2358 86.7848 12.6518C86.651 12.228 86.6135 11.78 86.675 11.3401C86.7365 10.9002 86.8955 10.4793 87.1405 10.108C87.4251 9.68329 87.818 9.34143 88.279 9.11738C88.7401 8.89333 89.2527 8.79513 89.7644 8.83284C90.2761 8.87054 90.7686 9.04279 91.1914 9.33196C91.6142 9.62113 91.9522 10.0168 92.1707 10.4786C92.5143 11.1766 92.5712 11.9802 92.3294 12.7192C92.0875 13.4582 91.5659 14.0745 90.8751 14.4375V14.3533ZM28.2593 7.26936C27.3661 7.25934 26.4901 7.51362 25.7426 7.99988C24.9951 8.48614 24.4097 9.18245 24.0609 10.0003C23.7121 10.8182 23.6156 11.7208 23.7837 12.5933C23.9517 13.4659 24.3768 14.2691 25.0048 14.9008C25.6328 15.5326 26.4354 15.9644 27.3107 16.1415C28.186 16.3185 29.0944 16.2328 29.9206 15.8952C30.7468 15.5575 31.4534 14.9832 31.9507 14.2453C32.4481 13.5073 32.7136 12.6389 32.7137 11.7505C32.717 11.1653 32.6045 10.5853 32.3824 10.0434C32.1604 9.5015 31.8332 9.00842 31.4195 8.59231C31.0059 8.17619 30.5139 7.84519 29.9717 7.6182C29.4294 7.39121 28.8476 7.27267 28.2593 7.26936V7.26936ZM29.5803 14.3954C29.1722 14.6061 28.7191 14.7159 28.2593 14.7155C27.6425 14.7113 27.0428 14.5136 26.5456 14.1506C26.0484 13.7877 25.679 13.2779 25.4901 12.6939C25.3508 12.2635 25.3112 11.8073 25.3743 11.3594C25.4374 10.9116 25.6014 10.4838 25.8542 10.108C26.1388 9.68329 26.5317 9.34143 26.9928 9.11738C27.4538 8.89333 27.9664 8.79513 28.4781 8.83284C28.9898 8.87054 29.4823 9.04279 29.9051 9.33196C30.3279 9.62113 30.6659 10.0168 30.8845 10.4786C31.2281 11.1766 31.285 11.9802 31.0431 12.7192C30.8013 13.4582 30.2797 14.0745 29.5888 14.4375L29.5803 14.3954ZM38.3537 7.2104C37.7806 7.21942 37.2233 7.39832 36.7531 7.72422C36.2361 8.08014 35.8263 8.56932 35.5675 9.13931V8.01061C35.5662 7.82438 35.4952 7.64532 35.3684 7.50829C35.2416 7.37127 35.0681 7.2861 34.8816 7.26936H34.8054C34.607 7.27158 34.4174 7.35154 34.2779 7.49189C34.1384 7.63224 34.0601 7.82166 34.0602 8.01903V15.4314C34.0602 15.6303 34.1396 15.8209 34.2809 15.9615C34.4223 16.1021 34.614 16.1811 34.8138 16.1811C35.0137 16.1811 35.2054 16.1021 35.3468 15.9615C35.4881 15.8209 35.5675 15.6303 35.5675 15.4314V12.0622C35.5364 11.2115 35.8061 10.377 36.3297 9.70367C36.5413 9.41591 36.8178 9.18145 37.1369 9.01909C37.456 8.85672 37.8089 8.77097 38.1674 8.76869H38.5315C38.6314 8.77602 38.7317 8.76003 38.8243 8.72201C38.9169 8.68399 38.9994 8.62498 39.065 8.54969C39.1901 8.39476 39.2561 8.20083 39.2513 8.00218C39.24 7.47433 38.9408 7.2104 38.3537 7.2104ZM61.2185 7.2104C60.5649 7.20556 59.9217 7.37421 59.3554 7.69895C58.8205 7.9938 58.3979 8.45555 58.1529 9.01297V8.01061C58.1516 7.82438 58.0806 7.64532 57.9538 7.50829C57.827 7.37127 57.6535 7.2861 57.467 7.26936H57.3654C57.1744 7.28005 56.9946 7.36258 56.8625 7.50022C56.7304 7.63787 56.6559 7.82033 56.654 8.01061V15.423C56.654 15.6218 56.7334 15.8125 56.8748 15.9531C57.0161 16.0937 57.2078 16.1727 57.4077 16.1727C57.6076 16.1727 57.7993 16.0937 57.9406 15.9531C58.082 15.8125 58.1614 15.6218 58.1614 15.423V12.2475C58.1594 11.8816 58.1792 11.516 58.2207 11.1525C58.2561 10.8202 58.3271 10.4927 58.4324 10.1754C58.5298 9.86659 58.6882 9.58023 58.8982 9.33305C59.1167 9.09686 59.3859 8.91262 59.6857 8.79396C60.0599 8.64584 60.4602 8.57422 60.8628 8.58338C62.2121 8.58338 62.8981 9.50993 62.9207 11.363C62.9207 11.846 62.9207 12.5507 62.9207 13.4773C62.9207 14.4038 62.9207 14.8502 62.9207 15.1619C62.9207 15.8105 63.2255 16.1221 63.7252 16.1221C64.2248 16.1221 64.4873 15.92 64.572 15.1619V10.9503C64.632 9.95815 64.3314 8.97762 63.7252 8.18749C63.4193 7.83799 63.0359 7.56399 62.6053 7.38711C62.1747 7.21024 61.7086 7.13532 61.2439 7.16829L61.2185 7.2104ZM76.8005 2.84719C76.6006 2.84719 76.4089 2.92617 76.2675 3.06676C76.1262 3.20735 76.0468 3.39803 76.0468 3.59685V15.4314C76.0468 15.6303 76.1262 15.8209 76.2675 15.9615C76.4089 16.1021 76.6006 16.1811 76.8005 16.1811C77.0004 16.1811 77.1921 16.1021 77.3334 15.9615C77.4748 15.8209 77.5542 15.6303 77.5542 15.4314V3.56316C77.5544 3.37004 77.4796 3.18429 77.3455 3.04463C77.2114 2.90497 77.0283 2.82217 76.8344 2.81349L76.8005 2.84719ZM54.5284 7.26936H54.4522C54.2538 7.27158 54.0643 7.35154 53.9247 7.49189C53.7852 7.63224 53.707 7.82166 53.707 8.01903V15.4314C53.707 15.6303 53.7864 15.8209 53.9277 15.9615C54.0691 16.1021 54.2608 16.1811 54.4607 16.1811C54.6606 16.1811 54.8523 16.1021 54.9936 15.9615C55.135 15.8209 55.2144 15.6303 55.2144 15.4314V8.01061C55.213 7.82438 55.142 7.64532 55.0152 7.50829C54.8884 7.37127 54.7149 7.2861 54.5284 7.26936V7.26936ZM41.4955 7.26936H41.4192C41.2208 7.27158 41.0313 7.35154 40.8918 7.49189C40.7523 7.63224 40.674 7.82166 40.674 8.01903V15.4314C40.674 15.6303 40.7534 15.8209 40.8948 15.9615C41.0361 16.1021 41.2278 16.1811 41.4277 16.1811C41.6276 16.1811 41.8193 16.1021 41.9607 15.9615C42.102 15.8209 42.1814 15.6303 42.1814 15.4314V8.01061C42.1801 7.82438 42.1091 7.64532 41.9823 7.50829C41.8555 7.37127 41.6819 7.2861 41.4955 7.26936ZM51.7846 7.32833C51.6702 7.27796 51.5449 7.25675 51.4201 7.26661C51.2953 7.27647 51.175 7.31709 51.0699 7.3848C50.9649 7.4525 50.8784 7.54517 50.8184 7.65443C50.7584 7.76369 50.7266 7.8861 50.7261 8.01061V8.68446C50.4259 8.22549 50.0137 7.84961 49.528 7.59186C49.0423 7.33411 48.4989 7.20288 47.9484 7.2104C47.3595 7.19788 46.7747 7.31178 46.234 7.54435C45.6933 7.77692 45.2093 8.1227 44.8151 8.55811C43.967 9.47341 43.5139 10.6832 43.5533 11.9274C43.5387 13.0387 43.9611 14.1117 44.7304 14.9176C45.1011 15.3269 45.5564 15.6518 46.0651 15.8698C46.5737 16.0879 47.1237 16.1941 47.6774 16.1811C48.2916 16.188 48.8976 16.0402 49.4389 15.7515C49.9611 15.4745 50.3973 15.0609 50.7007 14.5554V15.8947C50.7172 16.3081 50.6508 16.7206 50.5055 17.1081C50.3601 17.4957 50.1385 17.8506 49.8538 18.1521C49.5777 18.4316 49.2462 18.6509 48.8802 18.7959C48.5142 18.9409 48.1219 19.0085 47.7283 18.9945C47.121 18.998 46.5192 18.8806 45.9583 18.6491C45.8562 18.6118 45.7571 18.5668 45.6619 18.5143C45.5645 18.4606 45.4625 18.4155 45.3571 18.3796C45.2784 18.3685 45.1986 18.3685 45.12 18.3796C45.0243 18.3795 44.9298 18.4006 44.8434 18.4414C44.7569 18.4822 44.6807 18.5416 44.6203 18.6154C44.4861 18.7668 44.411 18.9611 44.4086 19.1629C44.4086 19.4942 44.626 19.775 45.0607 20.0052C45.8881 20.3845 46.7922 20.569 47.7028 20.5443C48.3058 20.5645 48.9067 20.4638 49.4698 20.2482C50.0328 20.0326 50.5465 19.7064 50.9801 19.2893C51.4114 18.8615 51.7461 18.3473 51.9622 17.7809C52.1783 17.2145 52.2708 16.6089 52.2335 16.0042V15.5662V14.2017C52.2335 13.2021 52.2335 11.5175 52.2335 9.14774V8.01061C52.2343 7.86777 52.1941 7.72767 52.1176 7.6068C52.0411 7.48593 51.9314 7.38931 51.8016 7.32833H51.7846ZM50.743 12.2138C50.6664 12.8562 50.367 13.452 49.8962 13.8984C49.6292 14.1689 49.3101 14.3829 48.9579 14.5277C48.6058 14.6724 48.2278 14.7449 47.8468 14.7407C47.486 14.7436 47.1286 14.67 46.7986 14.5247C46.4686 14.3795 46.1735 14.166 45.9329 13.8984C45.671 13.6219 45.4672 13.2963 45.3334 12.9405C45.1997 12.5847 45.1386 12.2059 45.1538 11.8263C45.1287 10.9623 45.4309 10.1205 46.0007 9.46782C46.2476 9.17518 46.558 8.94204 46.9086 8.78594C47.2591 8.62983 47.6407 8.55481 48.0246 8.56654C48.3932 8.5624 48.7584 8.63524 49.0969 8.78033C49.4353 8.92542 49.7393 9.13955 49.9893 9.40886C50.4331 9.89091 50.6989 10.5087 50.743 11.1609C50.7533 11.3432 50.7533 11.526 50.743 11.7084C50.7534 11.8767 50.7534 12.0455 50.743 12.2138ZM79.8407 14.6986C79.6933 14.6986 79.5492 14.7421 79.4266 14.8235C79.3041 14.905 79.2086 15.0208 79.1522 15.1562C79.0958 15.2917 79.081 15.4407 79.1098 15.5845C79.1385 15.7283 79.2095 15.8603 79.3137 15.964C79.4179 16.0677 79.5507 16.1383 79.6953 16.1669C79.8398 16.1955 79.9897 16.1808 80.1258 16.1247C80.262 16.0686 80.3784 15.9736 80.4603 15.8517C80.5422 15.7298 80.5859 15.5865 80.5859 15.4399C80.5859 15.3418 80.5663 15.2447 80.5284 15.1542C80.4904 15.0638 80.4347 14.9817 80.3646 14.9127C80.2945 14.8438 80.2114 14.7894 80.12 14.7526C80.0286 14.7159 79.9308 14.6975 79.8322 14.6986H79.8407ZM20.011 10.7145C19.9407 10.4804 19.8288 10.2607 19.6807 10.0659C19.6048 9.96553 19.5228 9.86989 19.4351 9.77948C19.2872 9.64007 19.1255 9.5159 18.9524 9.40886L3.59063 0.454997L3.23495 0.244417C2.93137 0.0873056 2.59481 0.00361646 2.25261 0.000144139V0.000144139C1.958 -0.00319871 1.66565 0.0516337 1.39249 0.161465C1.11934 0.271297 0.870803 0.433945 0.66129 0.639989C0.451776 0.846032 0.285446 1.09138 0.171933 1.36181C0.0584201 1.63224 -1.9164e-05 1.92239 4.71414e-09 2.21545C0.0179342 2.74769 0.204463 3.26069 0.532956 3.68121C0.86145 4.10173 1.31512 4.40828 1.82919 4.55709V4.55709L2.30342 4.69187V18.8428C2.29558 18.9775 2.29558 19.1125 2.30342 19.2472V19.2472C2.33833 19.3961 2.38361 19.5425 2.43892 19.6852C2.4873 19.8071 2.54982 19.923 2.62522 20.0305C2.69761 20.1388 2.77982 20.2403 2.87081 20.3337C2.95778 20.4245 3.05117 20.5089 3.15027 20.5864C3.24762 20.6574 3.34945 20.7222 3.45513 20.7802L3.74306 20.9065L4.07333 20.9908H4.42054H4.47135C4.60939 21.0031 4.74826 21.0031 4.8863 20.9908C5.05711 20.9553 5.22434 20.9046 5.38594 20.8391L5.61459 20.7296H5.6654L5.92792 20.6286L6.31747 20.4096L18.6306 13.4773L19.0456 13.233C19.2179 13.1286 19.3771 13.0042 19.5198 12.8624C19.6397 12.7371 19.7448 12.5986 19.8331 12.4496C19.9267 12.2946 19.9979 12.1273 20.0449 11.9527C20.0821 11.8175 20.1076 11.6794 20.1211 11.5399C20.134 11.4055 20.134 11.2701 20.1211 11.1356C20.0953 10.9926 20.0585 10.8518 20.011 10.7145V10.7145ZM2.54054 4.01801L2.35423 3.95905L2.0663 3.88324C1.69317 3.77604 1.36257 3.55653 1.11995 3.25487C0.877326 2.95321 0.734587 2.58422 0.711351 2.1986C0.713574 1.80387 0.872209 1.42593 1.15283 1.14681C1.43345 0.867691 1.81342 0.709904 2.21027 0.707693V0.707693C2.44362 0.6989 2.67575 0.745078 2.88775 0.842464L3.11639 0.977235L3.23495 1.04462C6.2316 2.86836 8.65023 5.49595 10.213 8.6255L10.1622 8.61708L10.069 8.50757L9.8827 8.28857L9.79801 8.19592L9.57783 7.96849L9.51855 7.90953L9.25603 7.65683C7.31088 5.97162 5.01889 4.7297 2.54054 4.01801V4.01801ZM5.60612 20.0221L5.40288 20.14L5.23351 20.2158C5.11563 20.263 4.99377 20.2996 4.86937 20.3253C4.7652 20.336 4.6602 20.336 4.55603 20.3253H4.31892L4.09027 20.2664L3.87856 20.1737L3.69225 20.0558L3.49747 19.8789C3.4346 19.8141 3.3779 19.7436 3.32811 19.6683C3.28342 19.6025 3.24648 19.5319 3.21802 19.4577C3.17705 19.3534 3.1431 19.2465 3.11639 19.1377C3.11069 19.0367 3.11069 18.9354 3.11639 18.8344V4.93614C4.15496 5.30691 5.16056 5.76335 6.1227 6.3007L6.24126 6.36808L6.46991 6.50285L6.64774 6.61235L6.78324 6.69659C7.05423 6.86505 7.32522 7.04194 7.63008 7.23567L7.91801 7.45467C8.319 7.76243 8.69816 8.09735 9.05279 8.45704C9.30457 8.7229 9.53933 9.00423 9.75567 9.29935L9.79801 9.35832L9.96738 9.59417L10.0605 9.72894L10.196 9.94794L10.2976 10.1333L10.4077 10.3354C10.4698 10.4589 10.5291 10.5825 10.5856 10.706L10.6533 10.8661L10.7634 11.144L10.8227 11.3125C10.8566 11.4136 10.8876 11.5175 10.9158 11.6242L11.009 11.7926C11.009 11.9358 11.0767 12.0874 11.1022 12.2391C11.1022 12.3822 11.1022 12.5254 11.1022 12.6686C11.1022 12.8118 11.1022 12.7781 11.1022 12.8371C11.1022 12.8961 11.1022 13.0898 11.1022 13.2161C11.1022 13.3425 11.1022 13.3425 11.1022 13.4015C11.1022 13.4604 11.1022 13.6373 11.0344 13.7468C10.9667 13.8563 11.0344 13.8816 10.9921 13.949C10.9497 14.0163 10.9328 14.1595 10.9074 14.2606C10.882 14.3617 10.9074 14.4122 10.8396 14.488C10.7719 14.5639 10.7719 14.6734 10.738 14.766C10.7041 14.8587 10.6787 14.9345 10.6364 15.0187L10.5348 15.2377C10.4924 15.3388 10.4416 15.4314 10.3908 15.5325L10.3061 15.6757C9.17672 17.5199 7.55181 19.0136 5.61459 19.9884L5.60612 20.0221ZM19.3335 11.7926C19.3038 11.9052 19.2582 12.0129 19.198 12.1127C19.1385 12.2158 19.0674 12.3118 18.9863 12.3991C18.8776 12.4916 18.7582 12.5708 18.6306 12.6349L18.2241 12.8792L9.67945 17.6889L9.79801 17.5457L10.0351 17.2593L10.2384 16.9982L10.3823 16.8044L10.6279 16.4254L10.738 16.2316C10.8142 16.0969 10.8904 15.9621 10.9582 15.8273L11.0344 15.6673C11.0965 15.5438 11.153 15.4174 11.2038 15.2882L11.2631 15.1451C11.3223 15.0019 11.3731 14.8502 11.424 14.707V14.5807C11.4748 14.4207 11.5171 14.2522 11.5595 14.0837V13.9827C11.5595 13.8058 11.6272 13.6289 11.6526 13.4436V13.4015C11.6954 13.0803 11.718 12.7568 11.7204 12.4328C11.7204 12.3738 11.7204 12.3149 11.7204 12.2559C11.7204 12.1969 11.7204 12.2054 11.7204 12.1717C11.7204 12.138 11.7204 12.0706 11.7204 12.0116C11.7204 11.9527 11.7204 11.801 11.7204 11.7C11.7204 11.5989 11.7204 11.6157 11.7204 11.5736C11.7204 11.3097 11.6837 11.0458 11.6103 10.7818V10.7229C11.6103 10.5797 11.551 10.4281 11.5171 10.2849V10.2428C10.7655 7.68123 9.35575 5.35873 7.42684 3.50419L18.5798 9.99848C18.704 10.077 18.8203 10.1672 18.927 10.268L19.1049 10.4786C19.1521 10.5428 19.1946 10.6104 19.2319 10.6808C19.2681 10.7515 19.2992 10.8247 19.325 10.8998C19.3522 10.9993 19.372 11.1006 19.3843 11.203C19.3926 11.2898 19.3926 11.3773 19.3843 11.4641C19.3783 11.575 19.3613 11.6851 19.3335 11.7926V11.7926Z" fill="white"/>
</svg>
